<mxfile host="app.diagrams.net" agent="Mozilla/5.0 (Windows NT 10.0; Win64; x64) AppleWebKit/537.36 (KHTML, like Gecko) Chrome/127.0.0.0 Safari/537.36" version="24.7.6">
  <diagram name="第 1 页" id="ZqgX4_-8nfEaSiUKN6Zx">
    <mxGraphModel dx="1050" dy="530" grid="1" gridSize="10" guides="1" tooltips="1" connect="1" arrows="1" fold="1" page="1" pageScale="1" pageWidth="827" pageHeight="1169" math="0" shadow="0">
      <root>
        <mxCell id="0" />
        <mxCell id="1" parent="0" />
        <mxCell id="45_28ugQ_Ss6l7HPSdLf-3" value="Conv" style="rounded=1;whiteSpace=wrap;html=1;fillColor=#dae8fc;strokeColor=#6c8ebf;" vertex="1" parent="1">
          <mxGeometry x="80" y="120" width="80" height="40" as="geometry" />
        </mxCell>
        <mxCell id="45_28ugQ_Ss6l7HPSdLf-4" value="BatchNorm" style="rounded=1;whiteSpace=wrap;html=1;fillColor=#dae8fc;strokeColor=#6c8ebf;" vertex="1" parent="1">
          <mxGeometry x="80" y="200" width="80" height="40" as="geometry" />
        </mxCell>
        <mxCell id="45_28ugQ_Ss6l7HPSdLf-6" value="" style="endArrow=classic;html=1;rounded=0;entryX=0.5;entryY=0;entryDx=0;entryDy=0;" edge="1" parent="1" target="45_28ugQ_Ss6l7HPSdLf-3">
          <mxGeometry width="50" height="50" relative="1" as="geometry">
            <mxPoint x="120" y="80" as="sourcePoint" />
            <mxPoint x="440" y="250" as="targetPoint" />
          </mxGeometry>
        </mxCell>
        <mxCell id="45_28ugQ_Ss6l7HPSdLf-7" value="" style="endArrow=classic;html=1;rounded=0;entryX=0.5;entryY=0;entryDx=0;entryDy=0;exitX=0.5;exitY=1;exitDx=0;exitDy=0;" edge="1" parent="1" source="45_28ugQ_Ss6l7HPSdLf-3" target="45_28ugQ_Ss6l7HPSdLf-4">
          <mxGeometry width="50" height="50" relative="1" as="geometry">
            <mxPoint x="130" y="90" as="sourcePoint" />
            <mxPoint x="130" y="130" as="targetPoint" />
          </mxGeometry>
        </mxCell>
        <mxCell id="45_28ugQ_Ss6l7HPSdLf-8" value="" style="endArrow=classic;html=1;rounded=0;exitX=0.5;exitY=1;exitDx=0;exitDy=0;" edge="1" parent="1" source="45_28ugQ_Ss6l7HPSdLf-4">
          <mxGeometry width="50" height="50" relative="1" as="geometry">
            <mxPoint x="130" y="170" as="sourcePoint" />
            <mxPoint x="120" y="280" as="targetPoint" />
          </mxGeometry>
        </mxCell>
        <mxCell id="45_28ugQ_Ss6l7HPSdLf-9" value="&lt;font color=&quot;#7ea6e0&quot; style=&quot;font-size: 15px;&quot;&gt;y1=x1*w1+b1&lt;/font&gt;&lt;div style=&quot;font-size: 15px;&quot;&gt;&lt;font color=&quot;#7ea6e0&quot; style=&quot;font-size: 15px;&quot;&gt;y2=y1*w2+b2&lt;/font&gt;&lt;/div&gt;&lt;div style=&quot;font-size: 15px;&quot;&gt;&lt;font color=&quot;#67ab9f&quot; style=&quot;font-size: 15px;&quot;&gt;y2=x1*w1*w2+b1*w2+b2&lt;/font&gt;&lt;/div&gt;" style="text;html=1;align=center;verticalAlign=middle;whiteSpace=wrap;rounded=0;" vertex="1" parent="1">
          <mxGeometry x="190" y="102.5" width="190" height="75" as="geometry" />
        </mxCell>
        <mxCell id="45_28ugQ_Ss6l7HPSdLf-10" value="" style="endArrow=classic;html=1;rounded=0;" edge="1" parent="1">
          <mxGeometry width="50" height="50" relative="1" as="geometry">
            <mxPoint x="190" y="182.5" as="sourcePoint" />
            <mxPoint x="400" y="182.5" as="targetPoint" />
          </mxGeometry>
        </mxCell>
        <mxCell id="45_28ugQ_Ss6l7HPSdLf-11" value="Conv" style="rounded=1;whiteSpace=wrap;html=1;fillColor=#d5e8d4;strokeColor=#82b366;" vertex="1" parent="1">
          <mxGeometry x="414" y="160" width="80" height="40" as="geometry" />
        </mxCell>
        <mxCell id="45_28ugQ_Ss6l7HPSdLf-12" value="" style="endArrow=classic;html=1;rounded=0;entryX=0.5;entryY=0;entryDx=0;entryDy=0;" edge="1" parent="1" target="45_28ugQ_Ss6l7HPSdLf-11">
          <mxGeometry width="50" height="50" relative="1" as="geometry">
            <mxPoint x="454" y="120" as="sourcePoint" />
            <mxPoint x="774" y="290" as="targetPoint" />
            <Array as="points" />
          </mxGeometry>
        </mxCell>
        <mxCell id="45_28ugQ_Ss6l7HPSdLf-13" value="" style="endArrow=classic;html=1;rounded=0;entryX=0.5;entryY=0;entryDx=0;entryDy=0;exitX=0.5;exitY=1;exitDx=0;exitDy=0;" edge="1" parent="1">
          <mxGeometry width="50" height="50" relative="1" as="geometry">
            <mxPoint x="453.5" y="200" as="sourcePoint" />
            <mxPoint x="453.5" y="240" as="targetPoint" />
          </mxGeometry>
        </mxCell>
        <mxCell id="45_28ugQ_Ss6l7HPSdLf-14" value="Transpose" style="rounded=1;whiteSpace=wrap;html=1;fillColor=#dae8fc;strokeColor=#6c8ebf;" vertex="1" parent="1">
          <mxGeometry x="80" y="400" width="80" height="40" as="geometry" />
        </mxCell>
        <mxCell id="45_28ugQ_Ss6l7HPSdLf-15" value="MatMul" style="rounded=1;whiteSpace=wrap;html=1;fillColor=#dae8fc;strokeColor=#6c8ebf;" vertex="1" parent="1">
          <mxGeometry x="160" y="480" width="80" height="40" as="geometry" />
        </mxCell>
        <mxCell id="45_28ugQ_Ss6l7HPSdLf-16" value="" style="endArrow=classic;html=1;rounded=0;entryX=0.5;entryY=0;entryDx=0;entryDy=0;strokeWidth=3;strokeColor=#67AB9F;" edge="1" parent="1" target="45_28ugQ_Ss6l7HPSdLf-14">
          <mxGeometry width="50" height="50" relative="1" as="geometry">
            <mxPoint x="120" y="360" as="sourcePoint" />
            <mxPoint x="110" y="320" as="targetPoint" />
          </mxGeometry>
        </mxCell>
        <mxCell id="45_28ugQ_Ss6l7HPSdLf-17" value="A=[512,256]" style="text;html=1;align=center;verticalAlign=middle;whiteSpace=wrap;rounded=0;" vertex="1" parent="1">
          <mxGeometry x="40" y="360" width="70" height="30" as="geometry" />
        </mxCell>
        <mxCell id="45_28ugQ_Ss6l7HPSdLf-18" value="" style="endArrow=classic;html=1;rounded=0;exitX=0.5;exitY=1;exitDx=0;exitDy=0;entryX=0.25;entryY=0;entryDx=0;entryDy=0;strokeWidth=3;strokeColor=#67AB9F;" edge="1" parent="1" source="45_28ugQ_Ss6l7HPSdLf-14" target="45_28ugQ_Ss6l7HPSdLf-15">
          <mxGeometry width="50" height="50" relative="1" as="geometry">
            <mxPoint x="390" y="500" as="sourcePoint" />
            <mxPoint x="440" y="450" as="targetPoint" />
          </mxGeometry>
        </mxCell>
        <mxCell id="45_28ugQ_Ss6l7HPSdLf-19" value="[256,512]" style="text;html=1;align=center;verticalAlign=middle;whiteSpace=wrap;rounded=0;" vertex="1" parent="1">
          <mxGeometry x="80" y="450" width="60" height="30" as="geometry" />
        </mxCell>
        <mxCell id="45_28ugQ_Ss6l7HPSdLf-20" value="" style="endArrow=classic;html=1;rounded=0;entryX=0.75;entryY=0;entryDx=0;entryDy=0;strokeWidth=3;strokeColor=#7EA6E0;" edge="1" parent="1" target="45_28ugQ_Ss6l7HPSdLf-15">
          <mxGeometry width="50" height="50" relative="1" as="geometry">
            <mxPoint x="220" y="360" as="sourcePoint" />
            <mxPoint x="440" y="450" as="targetPoint" />
          </mxGeometry>
        </mxCell>
        <mxCell id="45_28ugQ_Ss6l7HPSdLf-22" value="B=[512,768]" style="text;html=1;align=center;verticalAlign=middle;whiteSpace=wrap;rounded=0;" vertex="1" parent="1">
          <mxGeometry x="240" y="360" width="70" height="30" as="geometry" />
        </mxCell>
        <mxCell id="45_28ugQ_Ss6l7HPSdLf-23" value="" style="endArrow=classic;html=1;rounded=0;" edge="1" parent="1">
          <mxGeometry width="50" height="50" relative="1" as="geometry">
            <mxPoint x="200" y="520" as="sourcePoint" />
            <mxPoint x="200" y="560" as="targetPoint" />
          </mxGeometry>
        </mxCell>
        <mxCell id="45_28ugQ_Ss6l7HPSdLf-24" value="Transpose" style="rounded=1;whiteSpace=wrap;html=1;fillColor=#dae8fc;strokeColor=#6c8ebf;" vertex="1" parent="1">
          <mxGeometry x="160" y="560" width="80" height="40" as="geometry" />
        </mxCell>
        <mxCell id="45_28ugQ_Ss6l7HPSdLf-25" value="" style="endArrow=classic;html=1;rounded=0;exitX=0.5;exitY=1;exitDx=0;exitDy=0;" edge="1" parent="1" source="45_28ugQ_Ss6l7HPSdLf-24">
          <mxGeometry width="50" height="50" relative="1" as="geometry">
            <mxPoint x="130" y="370" as="sourcePoint" />
            <mxPoint x="200" y="640" as="targetPoint" />
          </mxGeometry>
        </mxCell>
        <mxCell id="45_28ugQ_Ss6l7HPSdLf-26" value="C=[768,256]" style="text;html=1;align=center;verticalAlign=middle;whiteSpace=wrap;rounded=0;" vertex="1" parent="1">
          <mxGeometry x="210" y="610" width="70" height="30" as="geometry" />
        </mxCell>
        <mxCell id="45_28ugQ_Ss6l7HPSdLf-27" value="[256,768]" style="text;html=1;align=center;verticalAlign=middle;whiteSpace=wrap;rounded=0;" vertex="1" parent="1">
          <mxGeometry x="120" y="520" width="60" height="30" as="geometry" />
        </mxCell>
        <mxCell id="45_28ugQ_Ss6l7HPSdLf-28" value="&lt;font color=&quot;#7ea6e0&quot;&gt;&lt;span style=&quot;font-size: 15px;&quot;&gt;y=T(T(A)*B)&lt;/span&gt;&lt;/font&gt;&lt;br&gt;&lt;div style=&quot;font-size: 15px;&quot;&gt;&lt;font color=&quot;#67ab9f&quot;&gt;y=T(B)*A&lt;/font&gt;&lt;/div&gt;" style="text;html=1;align=center;verticalAlign=middle;whiteSpace=wrap;rounded=0;" vertex="1" parent="1">
          <mxGeometry x="240" y="440" width="190" height="75" as="geometry" />
        </mxCell>
        <mxCell id="45_28ugQ_Ss6l7HPSdLf-29" value="" style="endArrow=classic;html=1;rounded=0;" edge="1" parent="1">
          <mxGeometry width="50" height="50" relative="1" as="geometry">
            <mxPoint x="260" y="499.5" as="sourcePoint" />
            <mxPoint x="400" y="500" as="targetPoint" />
          </mxGeometry>
        </mxCell>
        <mxCell id="45_28ugQ_Ss6l7HPSdLf-30" value="Transpose" style="rounded=1;whiteSpace=wrap;html=1;fillColor=#dae8fc;strokeColor=#6c8ebf;" vertex="1" parent="1">
          <mxGeometry x="390" y="395" width="80" height="40" as="geometry" />
        </mxCell>
        <mxCell id="45_28ugQ_Ss6l7HPSdLf-31" value="MatMul" style="rounded=1;whiteSpace=wrap;html=1;fillColor=#dae8fc;strokeColor=#6c8ebf;" vertex="1" parent="1">
          <mxGeometry x="470" y="475" width="80" height="40" as="geometry" />
        </mxCell>
        <mxCell id="45_28ugQ_Ss6l7HPSdLf-32" value="" style="endArrow=classic;html=1;rounded=0;entryX=0.5;entryY=0;entryDx=0;entryDy=0;strokeWidth=3;strokeColor=#7EA6E0;" edge="1" parent="1" target="45_28ugQ_Ss6l7HPSdLf-30">
          <mxGeometry width="50" height="50" relative="1" as="geometry">
            <mxPoint x="430" y="355" as="sourcePoint" />
            <mxPoint x="420" y="315" as="targetPoint" />
          </mxGeometry>
        </mxCell>
        <mxCell id="45_28ugQ_Ss6l7HPSdLf-33" value="B=[512,768]" style="text;html=1;align=center;verticalAlign=middle;whiteSpace=wrap;rounded=0;" vertex="1" parent="1">
          <mxGeometry x="350" y="355" width="70" height="30" as="geometry" />
        </mxCell>
        <mxCell id="45_28ugQ_Ss6l7HPSdLf-34" value="" style="endArrow=classic;html=1;rounded=0;exitX=0.5;exitY=1;exitDx=0;exitDy=0;entryX=0.25;entryY=0;entryDx=0;entryDy=0;strokeWidth=3;strokeColor=#7EA6E0;" edge="1" parent="1" source="45_28ugQ_Ss6l7HPSdLf-30" target="45_28ugQ_Ss6l7HPSdLf-31">
          <mxGeometry width="50" height="50" relative="1" as="geometry">
            <mxPoint x="700" y="495" as="sourcePoint" />
            <mxPoint x="750" y="445" as="targetPoint" />
          </mxGeometry>
        </mxCell>
        <mxCell id="45_28ugQ_Ss6l7HPSdLf-35" value="[768,512]" style="text;html=1;align=center;verticalAlign=middle;whiteSpace=wrap;rounded=0;" vertex="1" parent="1">
          <mxGeometry x="390" y="445" width="60" height="30" as="geometry" />
        </mxCell>
        <mxCell id="45_28ugQ_Ss6l7HPSdLf-36" value="" style="endArrow=classic;html=1;rounded=0;entryX=0.75;entryY=0;entryDx=0;entryDy=0;strokeWidth=3;strokeColor=#67AB9F;" edge="1" parent="1" target="45_28ugQ_Ss6l7HPSdLf-31">
          <mxGeometry width="50" height="50" relative="1" as="geometry">
            <mxPoint x="530" y="355" as="sourcePoint" />
            <mxPoint x="750" y="445" as="targetPoint" />
          </mxGeometry>
        </mxCell>
        <mxCell id="45_28ugQ_Ss6l7HPSdLf-37" value="A=[512,256]" style="text;html=1;align=center;verticalAlign=middle;whiteSpace=wrap;rounded=0;" vertex="1" parent="1">
          <mxGeometry x="540" y="360" width="70" height="30" as="geometry" />
        </mxCell>
        <mxCell id="45_28ugQ_Ss6l7HPSdLf-38" value="" style="endArrow=classic;html=1;rounded=0;exitX=0.5;exitY=1;exitDx=0;exitDy=0;" edge="1" parent="1">
          <mxGeometry width="50" height="50" relative="1" as="geometry">
            <mxPoint x="510" y="520" as="sourcePoint" />
            <mxPoint x="510" y="560" as="targetPoint" />
          </mxGeometry>
        </mxCell>
        <mxCell id="45_28ugQ_Ss6l7HPSdLf-39" value="C=[768,256]" style="text;html=1;align=center;verticalAlign=middle;whiteSpace=wrap;rounded=0;" vertex="1" parent="1">
          <mxGeometry x="520" y="530" width="70" height="30" as="geometry" />
        </mxCell>
      </root>
    </mxGraphModel>
  </diagram>
</mxfile>
